<svg xmlns="http://www.w3.org/2000/svg" viewBox="0 0 345 128"><path fill="#f9943c" d="M203.28 57.7v5.242h15.481a1.91 1.91 0 1 1 0 3.819H203.28v7.4a1.91 1.91 0 1 1-3.82 0v-18a2.316 2.316 0 0 1 2.317-2.317H218.8a1.91 1.91 0 0 1 0 3.82h-15.52Zm21.251 14.831v-16.78a1.91 1.91 0 0 1 3.82 0v16.457H239a1.91 1.91 0 0 1 0 3.82h-10.974a3.469 3.469 0 0 1-3.495-3.495Zm33.441-18.692h-5.16a8.065 8.065 0 0 0-8.046 8.046v6.136a8.065 8.065 0 0 0 8.046 8.046h5.16a8.064 8.064 0 0 0 8.046-8.046v-6.134a8.091 8.091 0 0 0-8.046-8.046Zm4.186 14.182a4.223 4.223 0 0 1-4.226 4.226h-5.161a4.223 4.223 0 0 1-4.226-4.226v-6.134a4.223 4.223 0 0 1 4.226-4.226h5.161a4.223 4.223 0 0 1 4.226 4.226Zm53.555-10.362h-6.907v16.459a1.91 1.91 0 1 1-3.82 0V57.661h-6.949a1.91 1.91 0 0 1 0-3.82h17.676a1.91 1.91 0 0 1 0 3.82Zm-20.479 18.125a1.963 1.963 0 0 0 .649-2.641l-11.255-18.367a1.963 1.963 0 0 0-1.628-.935 1.914 1.914 0 0 0-1.626.935l-11.252 18.367a1.962 1.962 0 0 0-.04 1.95 1.88 1.88 0 0 0 1.666.976H283a1.91 1.91 0 0 0 0-3.82h-7.842l7.842-12.8 9.59 15.726a1.872 1.872 0 0 0 1.624.934 3.255 3.255 0 0 0 1.02-.325Zm-123.323 1.788 10.321-10.321 3.21 3.21a1.948 1.948 0 0 0 2.072.406 1.863 1.863 0 0 0 1.179-1.788V48.884a1.908 1.908 0 0 0-1.911-1.91h-20.194a1.908 1.908 0 0 0-1.381 3.251l4.55 4.551a1.925 1.925 0 0 0 2.723-2.723l-1.3-1.3h13.693v13.653l-1.3-1.3a1.963 1.963 0 0 0-2.722 0l-11.663 11.662a1.965 1.965 0 0 0 0 2.723 1.913 1.913 0 0 0 1.341.569 1.49 1.49 0 0 0 1.382-.488Z"/><path fill="#fff" d="M31.2 57.7v5.242h15.479a1.91 1.91 0 0 1 0 3.819H31.2v7.4a1.91 1.91 0 1 1-3.819 0v-18a2.316 2.316 0 0 1 2.316-2.317h17.022a1.91 1.91 0 0 1 0 3.82H31.2Zm23.121-3.861a1.908 1.908 0 0 1 1.909 1.91v18.369a1.91 1.91 0 1 1-3.819 0V55.751a1.908 1.908 0 0 1 1.907-1.91Zm62.128 22.228a1.908 1.908 0 0 1-1.909-1.91V55.792a1.942 1.942 0 0 1 1.909-1.91h8.651a10.793 10.793 0 0 1 10.687 11.093 11.329 11.329 0 0 1-11.256 11.094Zm8.086-3.861a7.572 7.572 0 0 0 7.436-7.273 7 7 0 0 0-6.826-7.274H118.4v14.549ZM96.5 55.751a1.908 1.908 0 0 1 1.909-1.91h10.361a1.91 1.91 0 1 1 0 3.82H98.405a1.881 1.881 0 0 1-1.905-1.91Zm12.312 16.457H93.326v-5.485h15.482a1.91 1.91 0 0 0 0-3.82H91.375a1.114 1.114 0 0 0-.365.041 2.052 2.052 0 0 0-.691.284 1.86 1.86 0 0 0-.853 1.585v9.3a1.816 1.816 0 0 0 .325 1.057 2.186 2.186 0 0 0 .528.528 2.016 2.016 0 0 0 1.056.325h17.433a1.907 1.907 0 0 0 1.909-1.91 1.934 1.934 0 0 0-1.909-1.905Zm-36.656-5.526a2.454 2.454 0 0 0 0-3.5l-8.818-8.812a1.928 1.928 0 0 0-2.316-.326 1.6 1.6 0 0 0-.731.732 1.927 1.927 0 0 0 .325 2.316l7.842 7.843-7.842 7.842a1.916 1.916 0 0 0-.325 2.316 1.6 1.6 0 0 0 .731.732 1.927 1.927 0 0 0 2.316-.325ZM82.4 75.5a1.928 1.928 0 0 0 2.317.325 1.6 1.6 0 0 0 .731-.732 1.988 1.988 0 0 0-.325-2.316l-7.842-7.842 7.842-7.843a1.927 1.927 0 0 0 .325-2.316 1.6 1.6 0 0 0-.731-.732 1.93 1.93 0 0 0-2.317.326l-8.817 8.817a2.454 2.454 0 0 0 0 3.5Zm90.08-13.125-4.064-4.064-4.063-4.063a1.962 1.962 0 0 0-2.763 0l-5.2 5.2-5.2 5.2-1.626-1.625-1.627-1.623a.89.89 0 0 0-.975-.2.845.845 0 0 0-.569.813v18.038a.972.972 0 0 0 .935.934h18.041a.844.844 0 0 0 .813-.568.893.893 0 0 0-.2-.976l-1.951-1.95-1.951-1.951 5.2-5.2 5.2-5.2a2.006 2.006 0 0 0 .569-1.382 1.932 1.932 0 0 0-.569-1.383Z"/></svg>