<svg xmlns="http://www.w3.org/2000/svg" viewBox="0 0 345 128"><path fill="#333e52" d="M203.2 57.7v5.242h15.438a1.91 1.91 0 0 1 0 3.819H203.2v7.4a1.905 1.905 0 1 1-3.81 0v-18a2.313 2.313 0 0 1 2.31-2.317h16.979a1.91 1.91 0 0 1 0 3.82H203.2Zm21.192 14.831v-16.78a1.9 1.9 0 1 1 3.809 0v16.457h10.617a1.91 1.91 0 0 1 0 3.82h-10.946a3.463 3.463 0 0 1-3.485-3.495Zm33.349-18.692h-5.151a8.053 8.053 0 0 0-8.023 8.046v6.136a8.053 8.053 0 0 0 8.023 8.046h5.146a8.053 8.053 0 0 0 8.023-8.046v-6.134a8.079 8.079 0 0 0-8.023-8.046Zm4.174 14.182a4.217 4.217 0 0 1-4.214 4.226h-5.147a4.217 4.217 0 0 1-4.214-4.226v-6.134a4.217 4.217 0 0 1 4.214-4.226h5.146a4.216 4.216 0 0 1 4.214 4.226Zm53.407-10.362h-6.889v16.459a1.9 1.9 0 1 1-3.808 0V57.661h-6.93a1.91 1.91 0 0 1 0-3.82h17.627a1.91 1.91 0 0 1 0 3.82Zm-20.428 18.125a1.968 1.968 0 0 0 .649-2.641l-11.225-18.367a1.958 1.958 0 0 0-1.621-.935 1.907 1.907 0 0 0-1.621.935l-11.224 18.367a1.97 1.97 0 0 0-.041 1.95 1.878 1.878 0 0 0 1.662.976H282.7a1.91 1.91 0 0 0 0-3.82h-7.82l7.82-12.8 9.563 15.726a1.869 1.869 0 0 0 1.621.934 3.233 3.233 0 0 0 1.01-.325Zm-122.982 1.788 10.293-10.321 3.2 3.21a1.939 1.939 0 0 0 2.067.406 1.864 1.864 0 0 0 1.175-1.788V48.884a1.9 1.9 0 0 0-1.905-1.91H166.6a1.909 1.909 0 0 0-1.377 3.251l4.538 4.551a1.923 1.923 0 1 0 2.715-2.723l-1.3-1.3h13.655v13.653l-1.3-1.3a1.955 1.955 0 0 0-2.715 0L169.2 74.768a1.968 1.968 0 0 0 0 2.723 1.906 1.906 0 0 0 1.338.569 1.483 1.483 0 0 0 1.374-.488Z"/><path fill="#ea973d" d="M31.587 57.7v5.242h15.439a1.91 1.91 0 0 1 0 3.819H31.587v7.4a1.9 1.9 0 1 1-3.809 0v-18a2.312 2.312 0 0 1 2.31-2.317h16.978a1.91 1.91 0 0 1 0 3.82H31.587Zm23.057-3.861a1.905 1.905 0 0 1 1.9 1.91v18.369a1.9 1.9 0 1 1-3.809 0V55.751a1.906 1.906 0 0 1 1.909-1.91Zm61.956 22.23a1.906 1.906 0 0 1-1.905-1.91V55.792a1.942 1.942 0 0 1 1.905-1.91h8.63a10.78 10.78 0 0 1 10.658 11.093 11.313 11.313 0 0 1-11.224 11.094Zm8.064-3.861a7.561 7.561 0 0 0 7.415-7.273 6.992 6.992 0 0 0-6.808-7.274h-6.726v14.547ZM96.705 55.751a1.905 1.905 0 0 1 1.9-1.91h10.333a1.91 1.91 0 0 1 0 3.82H98.609a1.879 1.879 0 0 1-1.904-1.91Zm12.278 16.457H93.544v-5.485h15.439a1.91 1.91 0 0 0 0-3.82H91.6a1.114 1.114 0 0 0-.365.041 2.037 2.037 0 0 0-.688.284 1.861 1.861 0 0 0-.851 1.585v9.3a1.815 1.815 0 0 0 .324 1.057 2.164 2.164 0 0 0 .527.528 2 2 0 0 0 1.053.325h17.384a1.9 1.9 0 0 0 1.905-1.91 1.932 1.932 0 0 0-1.906-1.905Zm-36.55-5.526a2.459 2.459 0 0 0 0-3.5l-8.794-8.812a1.918 1.918 0 0 0-2.309-.326 1.6 1.6 0 0 0-.73.732 1.931 1.931 0 0 0 .325 2.316l7.82 7.843-7.82 7.842a1.92 1.92 0 0 0-.325 2.316 1.6 1.6 0 0 0 .73.732 1.917 1.917 0 0 0 2.309-.325ZM82.644 75.5a1.918 1.918 0 0 0 2.31.325 1.6 1.6 0 0 0 .729-.732 1.991 1.991 0 0 0-.324-2.316l-7.821-7.842 7.821-7.843a1.931 1.931 0 0 0 .324-2.316 1.6 1.6 0 0 0-.729-.732 1.919 1.919 0 0 0-2.31.326l-8.793 8.817a2.457 2.457 0 0 0 0 3.5Zm89.836-13.125-4.052-4.064-4.053-4.063a1.952 1.952 0 0 0-2.755 0l-5.187 5.2-5.186 5.2-1.621-1.625-1.621-1.623a.887.887 0 0 0-.973-.2.844.844 0 0 0-.567.813v18.038a.972.972 0 0 0 .932.934h17.991a.84.84 0 0 0 .811-.568.893.893 0 0 0-.2-.976l-1.945-1.95-1.945-1.951 5.187-5.2 5.187-5.2a2.009 2.009 0 0 0 .567-1.382 1.934 1.934 0 0 0-.57-1.383Z"/></svg>