<svg xmlns="http://www.w3.org/2000/svg" viewBox="0 0 295 128"><path fill="#333e52" d="M177.232 57.81v4.79h14.034a1.747 1.747 0 0 1 0 3.493h-14.034v6.763a1.732 1.732 0 1 1-3.463 0V56.4a2.108 2.108 0 0 1 2.1-2.118H191.3a1.747 1.747 0 0 1 0 3.493h-14.068ZM196.5 71.372V56.026a1.731 1.731 0 1 1 3.461 0v15.049h9.652a1.747 1.747 0 0 1 0 3.493h-9.945a3.158 3.158 0 0 1-3.168-3.196Zm30.312-17.092h-4.677a7.342 7.342 0 0 0-7.294 7.357v5.611a7.342 7.342 0 0 0 7.294 7.357h4.677a7.343 7.343 0 0 0 7.295-7.357v-5.611a7.368 7.368 0 0 0-7.295-7.357Zm3.8 12.968a3.844 3.844 0 0 1-3.831 3.864H222.1a3.844 3.844 0 0 1-3.831-3.864v-5.611a3.844 3.844 0 0 1 3.831-3.864h4.679a3.845 3.845 0 0 1 3.831 3.864Zm48.549-9.475H272.9v15.049a1.732 1.732 0 1 1-3.463 0V57.773h-6.3a1.747 1.747 0 0 1 0-3.493h16.023a1.747 1.747 0 0 1 0 3.493Zm-18.569 16.572a1.806 1.806 0 0 0 .59-2.415l-10.2-16.8a1.777 1.777 0 0 0-1.474-.854 1.733 1.733 0 0 0-1.474.854l-10.2 16.8a1.806 1.806 0 0 0-.038 1.783 1.7 1.7 0 0 0 1.511.892h10.2a1.747 1.747 0 0 0 0-3.493H242.4l7.109-11.7 8.691 14.376a1.7 1.7 0 0 0 1.474.854 2.946 2.946 0 0 0 .918-.297Zm-111.8 1.635 9.357-9.438 2.91 2.935a1.755 1.755 0 0 0 1.878.372 1.705 1.705 0 0 0 1.068-1.635V49.746A1.736 1.736 0 0 0 162.276 48h-18.307a1.748 1.748 0 0 0-1.253 2.973l4.126 4.161a1.768 1.768 0 0 0 2.468 0 1.806 1.806 0 0 0 0-2.489l-1.179-1.189h12.414v12.485l-1.179-1.189a1.768 1.768 0 0 0-2.468 0l-10.572 10.664a1.807 1.807 0 0 0 0 2.49 1.729 1.729 0 0 0 1.216.52 1.344 1.344 0 0 0 1.252-.446Z"/><path fill="#ea973d" d="M19.2 57.262v5.119h14.17a1.869 1.869 0 0 1 0 3.73H19.2v7.222a1.752 1.752 0 1 1-3.5 0V55.754a2.193 2.193 0 0 1 2.12-2.262H33.4a1.869 1.869 0 0 1 0 3.73H19.2Zm21.162-3.77a1.807 1.807 0 0 1 1.748 1.865v17.937a1.752 1.752 0 1 1-3.5 0V55.357a1.807 1.807 0 0 1 1.748-1.865ZM97.224 75.2a1.807 1.807 0 0 1-1.748-1.865V55.4A1.931 1.931 0 0 1 96 54.087a1.7 1.7 0 0 1 1.227-.555h7.922c5.468 0 9.782 4.762 9.782 10.833 0 5.873-4.724 10.833-10.3 10.833Zm7.4-3.769a7.165 7.165 0 0 0 6.806-7.1c0-3.968-2.752-7.1-6.248-7.1H99.01v14.198ZM78.963 55.357a1.807 1.807 0 0 1 1.748-1.865H90.2a1.869 1.869 0 0 1 0 3.73h-9.489a1.782 1.782 0 0 1-1.748-1.865Zm11.269 16.072h-14.17v-5.358h14.17a1.869 1.869 0 0 0 0-3.73H74.277a.963.963 0 0 0-.335.04 1.815 1.815 0 0 0-1.413 1.825v9.088a1.85 1.85 0 0 0 .3 1.031 2.043 2.043 0 0 0 .483.516 1.756 1.756 0 0 0 .967.318h15.953a1.808 1.808 0 0 0 1.748-1.865 1.833 1.833 0 0 0-1.748-1.865Zm-33.547-5.4a2.509 2.509 0 0 0 0-3.413l-8.071-8.611a1.682 1.682 0 0 0-2.114-.315 1.512 1.512 0 0 0-.67.715 1.976 1.976 0 0 0 .3 2.262l7.17 7.658-7.178 7.659a1.964 1.964 0 0 0-.3 2.262 1.506 1.506 0 0 0 .67.714 1.682 1.682 0 0 0 2.119-.317Zm9.373 8.611a1.682 1.682 0 0 0 2.119.317 1.506 1.506 0 0 0 .67-.714 2.039 2.039 0 0 0-.3-2.262l-7.178-7.659 7.178-7.658a1.976 1.976 0 0 0 .3-2.262 1.512 1.512 0 0 0-.67-.715 1.682 1.682 0 0 0-2.119.318l-8.071 8.611a2.509 2.509 0 0 0 0 3.413Zm82.454-12.818-3.719-3.968-3.719-3.968a1.716 1.716 0 0 0-2.529 0l-4.761 5.079-4.76 5.08-1.488-1.588-1.488-1.587a.777.777 0 0 0-.892-.2.821.821 0 0 0-.521.793v17.624a.969.969 0 0 0 .26.635.853.853 0 0 0 .595.278H142a.775.775 0 0 0 .743-.556.909.909 0 0 0-.186-.952l-1.785-1.905-1.785-1.905 4.761-5.079 4.76-5.079a2.028 2.028 0 0 0 .521-1.349 1.958 1.958 0 0 0-.517-1.35Z"/></svg>