<svg xmlns="http://www.w3.org/2000/svg" viewBox="0 0 128 128"><path fill="#f9943c" d="m71.424 61.5-6.144-6.14-6.08-6.08a2.937 2.937 0 0 0-4.224 0L47.1 57.152l-7.872 7.872-2.5-2.5-2.5-2.5a1.322 1.322 0 0 0-1.472-.32 1.343 1.343 0 0 0-.832 1.216v27.4a1.312 1.312 0 0 0 1.344 1.344h27.276a1.343 1.343 0 0 0 1.216-.832 1.322 1.322 0 0 0-.32-1.472l-2.94-2.944-2.944-2.944 8-7.872 7.872-7.872a2.937 2.937 0 0 0 0-4.224Z"/><path fill="#263e4f" d="M68.544 85.376a2.8 2.8 0 0 1-2.048-.832 2.859 2.859 0 0 1 0-4.1l17.664-17.66a2.859 2.859 0 0 1 4.1 0l1.92 1.92V44.1H69.5l1.984 1.984a2.9 2.9 0 0 1-4.1 4.1l-6.848-6.912a2.881 2.881 0 0 1 2.048-4.928H93.12A2.868 2.868 0 0 1 96 41.216v30.528a2.928 2.928 0 0 1-1.792 2.688 2.861 2.861 0 0 1-3.136-.64l-4.864-4.864-15.616 15.616a2.7 2.7 0 0 1-2.048.832Z"/></svg>