<svg xmlns="http://www.w3.org/2000/svg" viewBox="0 0 128 128"><defs><clipPath id="a"><path fill="none" d="M16 14.222h96v96H16z"/></clipPath></defs><g clip-path="url(#a)"><path d="M104 46.222v48a4 4 0 0 1-4 4H28a4 4 0 0 1-4-4v-52h76a4 4 0 0 1 4 4Zm-38.344-12H24v-4a4 4 0 0 1 4-4h29.656Z"/></g><path fill="#fff" d="m68.821 66.012-3.516-3.44-3.48-3.4a1.708 1.708 0 0 0-2.417 0L54.9 63.575l-4.5 4.408-1.429-1.4-1.428-1.4a.768.768 0 0 0-.843-.179.752.752 0 0 0-.476.681v15.34a.722.722 0 0 0 .22.538.755.755 0 0 0 .549.215h15.6a.768.768 0 0 0 .7-.466.729.729 0 0 0-.183-.824l-1.688-1.648-1.685-1.649 4.579-4.407 4.5-4.407a1.622 1.622 0 0 0 0-2.365Z"/><path fill="#f9943c" d="M66.992 80a1.468 1.468 0 0 1-1.1-.472 1.68 1.68 0 0 1 0-2.322L75.4 67.193a1.486 1.486 0 0 1 2.2 0l1.034 1.088V56.6H67.509l1.069 1.124a1.682 1.682 0 0 1 0 2.322 1.487 1.487 0 0 1-2.206 0l-3.688-3.918a1.683 1.683 0 0 1-.344-1.778 1.542 1.542 0 0 1 1.447-1.016h16.44a1.587 1.587 0 0 1 1.551 1.633v17.305a1.663 1.663 0 0 1-.965 1.524 1.485 1.485 0 0 1-1.689-.363l-2.619-2.757-8.405 8.852a1.417 1.417 0 0 1-1.108.472Z"/></svg>