<svg xmlns="http://www.w3.org/2000/svg" viewBox="0 0 128 128"><path fill="#fff" d="m71.424 61.5-6.144-6.14-6.08-6.08a2.937 2.937 0 0 0-4.224 0L47.1 57.152l-7.872 7.872-2.5-2.5-2.5-2.5a1.322 1.322 0 0 0-1.472-.32 1.343 1.343 0 0 0-.832 1.216v27.4a1.312 1.312 0 0 0 1.344 1.344h27.276a1.343 1.343 0 0 0 1.216-.832 1.322 1.322 0 0 0-.32-1.472l-2.94-2.944-2.944-2.944 8-7.872 7.872-7.872a2.937 2.937 0 0 0 0-4.224Z"/><path fill="#f9943c" d="M68.544 85.376c-1.547 0-2.834-1.038-3.338-3.638l21-21 3.97 3.962V44.1H69.5l3.1 3.088c-.071 3.784-3.412 4.78-5.2 2.988l-6.848-6.912a2.881 2.881 0 0 1 2.048-4.928H96v33.408a2.957 2.957 0 0 1-4.443 2.533l-5.349-5.349-15.616 15.616a2.7 2.7 0 0 1-2.048.832Z"/></svg>