<svg xmlns="http://www.w3.org/2000/svg" width="1687" height="1724" fill="none"><g clip-path="url(#a)"><path fill="#343D7A" d="M4898 5381.5c0-503.16-104.83-1001.39-308.52-1466.25-203.68-464.86-502.22-887.24-878.58-1243.03-376.35-355.79-823.15-638.01-1314.88-830.56C1904.28 1649.1 1377.25 1550 845 1550c-532.248 0-1059.284 99.1-1551.016 291.66-491.734 192.55-938.534 474.77-1314.884 830.56-376.36 355.79-674.9 778.17-878.58 1243.03C-3103.17 4380.11-3208 4878.34-3208 5381.5h8106Z"/><g filter="url(#b)"><path fill="#0C0D16" d="M4898 5404.5c0-503.16-104.83-1001.39-308.52-1466.25-203.68-464.86-502.22-887.24-878.58-1243.03-376.35-355.79-823.15-638.01-1314.88-830.56C1904.28 1672.1 1377.25 1573 845 1573c-532.248 0-1059.284 99.1-1551.016 291.66-491.734 192.55-938.534 474.77-1314.884 830.56-376.36 355.79-674.9 778.17-878.58 1243.03C-3103.17 4403.11-3208 4901.34-3208 5404.5h8106Z"/></g><path fill="#0C0D16" d="M0 1733h1687v-19.721H0z"/></g><defs><clipPath id="a"><path fill="#fff" d="M0 0h1687v1724H0z"/></clipPath><filter id="b" width="8238" height="3963.5" x="-3274" y="1507" color-interpolation-filters="sRGB" filterUnits="userSpaceOnUse"><feFlood flood-opacity="0" result="BackgroundImageFix"/><feBlend in="SourceGraphic" in2="BackgroundImageFix" result="shape"/><feGaussianBlur result="effect1_foregroundBlur_51_751" stdDeviation="33"/></filter></defs></svg>