<svg xmlns="http://www.w3.org/2000/svg" width="1687" height="1724" fill="none"><g clip-path="url(#a)"><path fill="#0C0D16" d="M0 0h1687v1724H0z"/><path fill="url(#b)" d="M-5-17h1700v1731H-5z"/><g filter="url(#c)"><ellipse cx="1440.99" cy="672.69" fill="#223D9C" fill-opacity=".29" rx="370" ry="123.624" transform="rotate(-37.462 1440.99 672.69)"/></g><g filter="url(#d)"><ellipse cx="182.285" cy="645.932" fill="#223D9C" fill-opacity=".29" rx="370" ry="151.876" transform="rotate(-37.462 182.285 645.932)"/></g><g fill="#fff"><circle cx="295.001" cy="1001.99" r="1"/><circle cx="30.179" cy="1108.99" r="1"/><circle cx="543.001" cy="951.993" r="1"/><circle cx="192" cy="910.993" r="1"/><circle cx="234.001" cy="1119.99" r="1"/><circle cx="484.001" cy="814.994" r="1"/><circle cx="660.085" cy="395.496" r="1" transform="rotate(-173.358 660.085 395.496)"/><circle cx="348.001" cy="786.994" r="1"/><circle cx="1326.61" cy="173.307" r="1" transform="rotate(-173.358 1326.61 173.307)"/><circle cx="1043.88" cy="357.736" r="1" transform="rotate(-173.358 1043.88 357.736)"/><circle cx="1459.89" cy="356.395" r="1" transform="rotate(-173.358 1459.89 356.395)"/><circle cx="100.138" cy="655.242" r="1"/><circle cx="1022.89" cy="598.584" r="1" transform="rotate(-173.358 1022.89 598.584)"/><circle cx="380.001" cy="1026.99" r="1"/><circle cx="711.695" cy="212.497" r="1" transform="rotate(-173.358 711.695 212.497)"/><circle cx="666.001" cy="797.994" r="1"/><circle cx="477.34" cy="391.329" r="1" transform="rotate(-173.358 477.34 391.329)"/><circle cx="749" cy="984.993" r="1"/><circle cx="416.528" cy="195.984" r="1" transform="rotate(-173.358 416.528 195.984)"/><circle cx="967.001" cy="798.994" r="1"/><circle cx="178.476" cy="355.518" r="1" transform="rotate(-173.358 178.476 355.518)"/><circle cx="1497" cy="598.102" r="1"/><circle cx="870.465" cy="612.451" r="1"/><circle cx="403.453" cy="600.102" r="1"/><circle cx="1150" cy="673.689" r="1"/><circle cx="574.001" cy="667" r="1"/><circle cx="70.08" cy="953.993" r="1"/><circle cx="1033" cy="968.993" r="1"/><circle cx="1142" cy="812.994" r="1"/><circle cx="1402" cy="924.993" r="1"/><circle cx="1400" cy="1052.99" r="1"/><circle cx="1112" cy="1112.99" r="1"/><circle cx="1042" cy="1224.99" r="1"/><circle cx="459.001" cy="892.994" r="1"/><circle cx="261.001" cy="883.994" r="1"/><circle cx="1495" cy="832.994" r="1"/><circle cx="1185" cy="949.993" r="1"/><circle cx="858.001" cy="1113.99" r="1"/><circle cx="834.001" cy="1211.99" r="1"/><circle cx="647.001" cy="1118.99" r="1"/><circle cx="1349" cy="995.993" r="1"/><circle cx="1625.03" cy="987.602" r="1"/><circle cx="1520" cy="1049.99" r="1"/><circle cx="1234" cy="866.994" r="1"/><circle cx="364.001" cy="1268.99" r="1"/><circle cx="1493" cy="1342.99" r="1"/></g><g fill="#fff"><path d="m373 884 1.38 6.62L381 892l-6.62 1.38L373 900l-1.38-6.62L365 892l6.62-1.38L373 884ZM1500 962l1.38 6.62L1508 970l-6.62 1.38L1500 978l-1.38-6.62L1492 970l6.62-1.38L1500 962ZM1294 953l1.38 6.62L1302 961l-6.62 1.38L1294 969l-1.38-6.62L1286 961l6.62-1.38L1294 953ZM199 692l1.38 6.62L207 700l-6.62 1.38L199 708l-1.38-6.62L191 700l6.62-1.38L199 692ZM349 1159l1.38 6.62L357 1167l-6.62 1.38L349 1175l-1.38-6.62L341 1167l6.62-1.38L349 1159ZM180 1000l.863 4.14 4.137.86-4.137.86L180 1010l-.863-4.14L175 1005l4.137-.86.863-4.14ZM1307 834l.86 4.137 4.14.863-4.14.863L1307 844l-.86-4.137L1302 839l4.14-.863.86-4.137ZM1294 1100l.86 4.14 4.14.86-4.14.86-.86 4.14-.86-4.14-4.14-.86 4.14-.86.86-4.14ZM1408 788l.86 4.137 4.14.863-4.14.863L1408 798l-.86-4.137L1403 793l4.14-.863.86-4.137ZM1466 1078l.86 4.14 4.14.86-4.14.86-.86 4.14-.86-4.14-4.14-.86 4.14-.86.86-4.14ZM809 778l.863 4.137L814 783l-4.137.863L809 788l-.863-4.137L804 783l4.137-.863L809 778ZM180 810l.863 4.137L185 815l-4.137.863L180 820l-.863-4.137L175 815l4.137-.863L180 810Z"/></g></g><defs><filter id="c" width="1006.47" height="891.147" x="937.755" y="227.116" color-interpolation-filters="sRGB" filterUnits="userSpaceOnUse"><feFlood flood-opacity="0" result="BackgroundImageFix"/><feBlend in="SourceGraphic" in2="BackgroundImageFix" result="shape"/><feGaussianBlur result="effect1_foregroundBlur_27_8520" stdDeviation="100"/></filter><filter id="d" width="1215.91" height="1110.71" x="-425.672" y="90.579" color-interpolation-filters="sRGB" filterUnits="userSpaceOnUse"><feFlood flood-opacity="0" result="BackgroundImageFix"/><feBlend in="SourceGraphic" in2="BackgroundImageFix" result="shape"/><feGaussianBlur result="effect1_foregroundBlur_27_8520" stdDeviation="150"/></filter><linearGradient id="b" x1="845" x2="845" y1="-17" y2="1751.52" gradientUnits="userSpaceOnUse"><stop offset=".549" stop-color="#151B22"/><stop offset="1" stop-color="#5153E7"/></linearGradient><clipPath id="a"><path fill="#fff" d="M0 0h1687v1724H0z"/></clipPath></defs></svg>