<svg xmlns="http://www.w3.org/2000/svg" width="1687" height="1724" fill="none"><path fill="#443F7F" d="m711.564 1453.29-43.693 1.7 2.234 52.82 43.693-1.7-2.234-52.82Z"/><path fill="#5B578F" fill-rule="evenodd" d="m631.089 1310.99-93.694 190.13 296.2-39.65-58.334-95.59-144.172-54.89Z" clip-rule="evenodd"/><path fill="#8E8CB2" fill-rule="evenodd" d="m733.139 1256.98 82.897 137.54-235.006-26.94 92.932-171.82 59.177 61.22Z" clip-rule="evenodd"/><path fill="#BAB6DB" fill-rule="evenodd" d="m678.319 1128.2-80.142 163.03 158.14-35.17-77.998-127.86Z" clip-rule="evenodd"/><mask id="a" width="297" height="374" x="537" y="1128" maskUnits="userSpaceOnUse" style="mask-type:luminance"><path fill="#fff" d="m833.595 1461.47-42.599-69.82 25.04 2.87-80.64-133.8 20.921-4.66-77.998-127.86-80.142 163.03 27.441-6.11-44.588 82.46 20.982 2.4-64.617 131.14 296.2-39.65Z"/></mask><g mask="url(#a)"><path fill="#E44224" d="M616.445 1217.34c31.091 14.42 54.28-17.81 79.919-30.27 9.726-5.03 21.609-7.49 32.554-4.64l-2.342 8.78c-8.984-2.71-18.364-1.04-26.882 2.84-26.282 11.98-53.299 43.46-84.842 26.51l1.571-3.23.022.01Z"/><path fill="#B2A1A1" d="M585.646 1298.52c53.193-16.02 145.485 73.84 227.038 42.9l.64 1.59c-37.252 15.53-79.028 5.21-115.504-7.73-27.621-9.48-54.06-22.64-82.489-28.74-9.212-1.88-18.63-2.21-26.597.55l-3.095-8.55.007-.02Z"/><path fill="#F97432" d="M523.556 1452.97c27.103 8.59 56.166 2.64 83.479-2.18 41.75-8.31 82.887-20.19 124.721-28.62 28.149-5.61 56.741-10.16 85.716-8.48 14.52.97 29.332 3.74 42.937 10.51l-4.22 8.04c-11.876-6.17-25.545-9.09-39.319-10.24-27.934-2.13-56.24 1.87-83.794 6.85-41.979 7.65-83.097 18.76-125.179 26.35-27.96 4.43-57.788 9.92-85.391.53l1.05-2.76Z"/></g><path fill="#FAFEFE" fill-rule="evenodd" d="m668.946 1167.99-57.773 113.15 95.902-21.51-73.178 6.46 35.049-98.1Z" clip-rule="evenodd"/><path fill="#BAB6DB" fill-rule="evenodd" d="m635.321 1295.41-34.369 61.65 116.571 18.26-91.086-28.16 8.884-51.75Z" clip-rule="evenodd"/><path fill="#8E8CB2" fill-rule="evenodd" d="m608.083 1387.94-47.077 97.64 141.005-22.04-112.796 1.62 18.868-77.22Z" clip-rule="evenodd"/><path fill="#B2A1A1" fill-rule="evenodd" d="M772.058 1346.8c.312 7.49-5.54 13.83-13.069 14.12-7.53.29-13.922-5.56-14.234-13.05-.312-7.5 5.533-13.82 13.069-14.13 7.53-.28 13.9 5.55 14.234 13.06ZM678.518 1440.08c.312 7.49-5.54 13.84-13.069 14.12-7.53.29-13.922-5.55-14.234-13.05-.312-7.49 5.533-13.82 13.069-14.13 7.536-.3 13.9 5.56 14.234 13.06ZM676.784 1208.22c.197 4.63-3.424 8.57-8.105 8.74-4.681.18-8.623-3.43-8.814-8.09-.197-4.64 3.425-8.57 8.105-8.75 4.659-.18 8.623 3.44 8.814 8.1Z" clip-rule="evenodd"/><path fill="#E44224" fill-rule="evenodd" d="M713.55 1333.75c.247 5.81-4.278 10.68-10.119 10.91-5.842.23-10.75-4.29-10.997-10.11-.248-5.81 4.277-10.68 10.119-10.91 5.841-.23 10.75 4.29 10.997 10.11Z" clip-rule="evenodd"/><path fill="#5B578F" fill-rule="evenodd" d="M706.955 1190.38c.247 5.82-4.278 10.69-10.119 10.92-5.842.23-10.75-4.29-10.997-10.11-.247-5.81 4.277-10.68 10.119-10.91 5.842-.23 10.75 4.29 10.997 10.1ZM662.257 1313.08c.247 5.81-4.278 10.69-10.119 10.91-5.842.23-10.751-4.29-10.998-10.1-.247-5.82 4.278-10.69 10.12-10.92 5.841-.22 10.75 4.3 10.997 10.11Z" clip-rule="evenodd"/><path fill="#443F7F" fill-rule="evenodd" d="M728.172 1429.06c.247 5.81-4.278 10.68-10.119 10.91-5.842.23-10.75-4.29-10.997-10.11-.247-5.81 4.278-10.68 10.119-10.91 5.842-.23 10.75 4.29 10.997 10.11Z" clip-rule="evenodd"/><path fill="#E44224" fill-rule="evenodd" d="M626.56 1450.35a8.152 8.152 0 0 1-7.86 8.49c-4.536.18-8.367-3.33-8.554-7.85-.186-4.51 3.317-8.29 7.86-8.49 4.543-.19 8.346 3.33 8.554 7.85Z" clip-rule="evenodd"/><path fill="#BAB6DB" fill-rule="evenodd" d="M782.057 1417.54c.279 6.41-4.742 11.82-11.183 12.06-6.447.26-11.875-4.75-12.155-11.17-.28-6.42 4.735-11.8 11.182-12.06 6.447-.26 11.876 4.75 12.162 11.14l-.006.03Z" clip-rule="evenodd"/><path fill="#8E8CB2" fill-rule="evenodd" d="m625.618 1285.12-5.616 10.38 123.769-20.89-8.375-13.89-109.778 24.4ZM595.105 1384l6.907-14.02 188.984 21.67 5.408 8.87L595.105 1384ZM669.102 1483.49l.327 7.99 43.533-5.68-.36-8.12-43.5 5.81Z" clip-rule="evenodd" opacity=".5" style="mix-blend-mode:multiply"/><path fill="#443F7F" d="m998.176 1429.29-2.81 19.78 16.284 2.31 2.81-19.78-16.284-2.31Z"/><path fill="#8E8CB2" d="m996.796 1438.98-.4 2.82 16.294 2.31.4-2.82-16.294-2.31Z" opacity=".5" style="mix-blend-mode:multiply"/><path fill="#5B578F" d="m1018.45 1344.99-66.049 87.71 105.079 14.93-39.03-102.64Z"/><path fill="#8E8CB2" fill-rule="evenodd" d="m975.575 1401.92 3.734-4.96 24.371-1.36 37.89 10.21 2.21 5.8-68.205-9.69Z" clip-rule="evenodd" opacity=".5" style="mix-blend-mode:multiply"/><path fill="#8E8CB2" d="m1020.73 1328.96-50.277 66.75 79.977 11.37-29.7-78.12Z"/><path fill="#8E8CB2" fill-rule="evenodd" d="m995.604 1362.34 2.021-2.71 12.465-4.86 24.29 10.09 1.2 3.16-39.976-5.68Z" clip-rule="evenodd" opacity=".5" style="mix-blend-mode:multiply"/><path fill="#BAB6DB" d="m1022.95 1313.3-33.956 45.1 54.026 7.68-20.07-52.78Z"/><path fill="#fff" fill-rule="evenodd" d="m996.512 1355.9 8.498 1.2 14.56-33-23.058 31.8Z" clip-rule="evenodd"/><path fill="#BAB6DB" fill-rule="evenodd" d="m978.161 1393.24 10.123 1.45 10.387-29.72-20.51 28.27Z" clip-rule="evenodd"/><path fill="#8E8CB2" fill-rule="evenodd" d="m960.017 1430.55 12.155 1.73 7.436-27.61-19.591 25.88Z" clip-rule="evenodd"/><path fill="#F97432" fill-rule="evenodd" d="m996.527 1410 1.37 4.23 4.263 1.25-3.581 2.61.128 4.45-3.591-2.61-4.175 1.49 1.353-4.22-2.706-3.51 4.437-.02 2.502-3.67Z" clip-rule="evenodd"/><path fill="#B2A1A1" fill-rule="evenodd" d="m1022.27 1374.62 1.38 4.22 4.27 1.25-3.58 2.61.13 4.44-3.61-2.59-4.16 1.48 1.35-4.22-2.7-3.51 4.42-.01 2.5-3.67Z" clip-rule="evenodd"/><path fill="#BAB6DB" fill-rule="evenodd" d="m1005.33 1383.46.68 2.06 2.07.6-1.75 1.27.06 2.16-1.74-1.27-2.04.72.67-2.04-1.32-1.72h2.16l1.21-1.78Z" clip-rule="evenodd"/><path fill="#443F7F" fill-rule="evenodd" d="m1012.84 1352.65.67 2.05 2.07.62-1.74 1.26.06 2.16-1.75-1.25-2.04.72.66-2.05-1.32-1.71 2.16-.02 1.23-1.78ZM1036.47 1391.99l.69 2.05 2.06.61-1.74 1.26.05 2.17-1.74-1.26-2.03.73.66-2.06-1.33-1.71 2.17-.01 1.21-1.78Z" clip-rule="evenodd"/><path fill="#BAB6DB" fill-rule="evenodd" d="m1040.02 1432.35.67 2.06 2.07.6-1.74 1.28.06 2.16-1.76-1.26-2.03.73.66-2.06-1.31-1.72h2.15l1.23-1.79Z" clip-rule="evenodd"/><path fill="#8E8CB2" fill-rule="evenodd" d="m1023.64 1413.9.87 2.63 2.65.78-2.24 1.64.08 2.77-2.24-1.63-2.61.94.85-2.65-1.7-2.19 2.77-.02 1.57-2.27Z" clip-rule="evenodd"/><path fill="#E44224" fill-rule="evenodd" d="m1027.57 1343.63 1.4 4.22 4.25 1.24-3.59 2.62.14 4.44-3.61-2.6-4.17 1.5 1.35-4.22-2.71-3.52 4.44-.02 2.5-3.66Z" clip-rule="evenodd"/><path fill="#5B578F" fill-rule="evenodd" d="m1023.92 1329.11.67 2.06 2.08.6-1.75 1.27.06 2.16-1.76-1.25-2.04.72.67-2.05-1.31-1.72h2.16l1.22-1.79Z" clip-rule="evenodd"/></svg>