<svg baseProfile="basic" xmlns="http://www.w3.org/2000/svg" viewBox="0 0 965 256"><g fill="#818183"><path d="M659.2 137.4c-.2-32.8 25.2-59.5 58.7-59.6 34-.1 59.6 26 59.7 58.9.1 33.1-26.8 59.3-59.3 59.3-33.3-.1-59.8-27.3-59.1-58.6zm57.6 42.7c23.1.4 42.8-15.9 44.2-40.7 1.5-26.7-18.9-45.2-42.1-45.8-21-.5-42.3 15.9-43.4 42.1-1 24 18.3 44 41.3 44.4zM535.9 193.2c-1.6 0-3.2-.1-4.8 0-1.8.1-2.9-.7-3.7-2.3-2.5-5.4-5.1-10.8-7.6-16.2-.9-1.9-2-2.8-4.3-2.8-17 .1-33.9.1-50.9 0-1.8 0-2.9.6-3.6 2.2-2.5 5.4-5.1 10.7-7.5 16-1 2.1-2.3 3.1-4.7 3-3.1-.2-6.3 0-9.4 0-2.9 0-4.2-2.1-3-4.7 7.9-16.6 15.7-33.2 23.6-49.8 7.2-15.3 14.4-30.5 21.6-45.8 1.6-3.4 3.2-6.7 4.7-10.1.8-1.8 2.2-2.2 4-2.2 1.8 0 3.3.3 4.1 2.2 4.3 9.4 8.7 18.7 13.1 28.1l12.9 27.6c6.1 13.1 12.2 26.3 18.3 39.4l4.8 10.2c1.4 3 .2 5.1-3.1 5.1-1.4.1-2.9.1-4.5.1zm-45.7-36.7h17.3c2.9 0 3.4-.9 2.2-3.5-4-8.4-7.9-16.8-11.9-25.3-1.8-3.9-3.7-7.8-5.5-11.7-.4-.8-.9-1.4-1.7-1.5-1 0-1.5.7-1.9 1.5-.6 1.3-1.2 2.5-1.8 3.7-5.3 11.1-10.5 22.2-15.8 33.3-1.2 2.5-.7 3.3 2.2 3.3 5.6.2 11.2.2 16.9.2zM375.4 80.6c6.4 0 12.8-.2 19.2 0 10.6.4 19.2 5 25.7 13.3 6.7 8.5 8.6 18.4 6.5 28.8-2.8 14-11.5 22.9-25.1 27.1-2.6.8-5.3 1.1-8 1.1h-23.2c-2.8 0-3.5.7-3.5 3.5v34.7c0 2.9-1 4-3.9 4h-8.2c-2.6 0-3.7-1.1-3.7-3.7V84.1c0-2.6 1-3.6 3.7-3.6 6.9.1 13.7.1 20.5.1zm-8.4 35.1v16.6c0 2 .7 2.7 2.7 2.7h25.6c6.6 0 13.2-4.9 15.3-11.2 1.4-4.3 1.5-8.7.7-13.1-1.5-8.5-8.5-14.2-17.1-14.2h-24.3c-2.2 0-2.9.6-2.9 2.8v16.4zM835.8 195.8c-15.7-.1-25.4-5.9-32.7-16.1-1.7-2.3-3.2-4.8-4.6-7.3-1.2-2.1-.9-3.3 1.1-4.5 2.7-1.7 5.4-3.3 8.1-4.8 2.1-1.2 3.3-.9 4.6 1.3 2.6 4.6 5.6 8.7 9.8 12.1 8.5 7 21.1 2.7 25-4.7 2.3-4.3 2.7-8.7.6-13.2-2.2-4.7-6-8-9.6-11.5-5.3-5.1-11.5-9.2-17.2-13.8-4.8-4-9.6-7.9-12.7-13.6-5.8-10.6-4.7-24.3 3.9-33.2 4.9-5.1 11.1-7.9 18.1-8.5 11.5-1 20.7 3.5 28.2 12 1.7 1.9 3.3 3.9 4.8 5.9 1.3 1.7 1.2 3.1-.5 4.4-2.8 2.2-5.6 4.3-8.4 6.4-1.4 1-2.7.8-3.9-.6-2.1-2.4-4-5-6.3-7.2-4.1-3.9-8.9-5.5-14.4-4.3-8.2 1.9-11.3 10.5-6.7 17.8 2.6 4.2 6.6 7 10.5 10 6.8 5.1 13.8 10 19.9 16 5.8 5.7 10.2 12.2 12 20.3.7 3.3.9 6.6.4 9.8-1.7 9.7-6.9 17.1-15.3 22.4-5.3 3.4-11.1 4.9-14.7 4.9zM575.3 193.2h-6.1c-1.9 0-2.7-1.2-2-2.9 3.4-7.8 6.9-15.6 10.4-23.3 4.4-9.9 8.9-19.7 13.3-29.6.7-1.5.6-3.1-.1-4.6l-21-47.1c-.4-.9-.8-1.9-.6-2.9.3-1.4 1.2-2.1 2.6-2.1H583c1.4 0 2.2.8 2.6 2 3.8 9.3 7.7 18.6 11.5 27.9.9 2.2 1.8 4.3 2.7 6.5.3.7.5 1.7 1.5 1.7 1.1 0 1.3-1 1.6-1.8 2.2-5.3 4.5-10.7 6.7-16.1l7.5-18c.6-1.6 1.7-2.3 3.4-2.3 3.4.1 6.7 0 10.1 0 2.6 0 3.8 1.8 2.7 4.2-4.6 10.2-9.1 20.4-13.7 30.6-2.6 5.8-5.2 11.7-7.8 17.5-.7 1.5-.6 3 0 4.5 7.5 16.8 15.1 33.6 22.6 50.4.4.9.8 1.7 1.1 2.6.5 1.4-.2 2.7-1.7 2.7-4.3.1-8.6 0-13 0-1.1 0-1.7-.8-2.1-1.7-3.1-7.4-6.2-14.9-9.2-22.3l-6.9-16.5c-.3-.6-.5-1.3-1.2-1.3-.9-.1-1.1.7-1.4 1.3-2.7 6.4-5.4 12.8-8 19.2-2.7 6.4-5.4 12.9-8 19.3-.6 1.5-1.5 2.2-3.2 2.1-1.8-.1-3.7 0-5.5 0z"/></g><path fill="#0493D3" d="M259 102.7c-7.3 18.8-20.4 43.6-36.2 61.8-10 11.5-13.9 17.4-36.4 34.5-5.1 4.2-10.5 7.9-16.1 11.1-10.6 6.2-22 10.8-34.2 13.8-.3.1-.7.2-1 .2-.1 0-.2 0-.3.1-.2 0-.4.1-.6.1-15.4 3.3-37.4 2.9-53.4 1.9-10.4-.6-18.1-1.5-19.4-1.8 18 23 66.9 46.1 96.9 20.3 25.2-21.7 48.9-45.4 80.5-58.7 34.7-14.8 40.9-49.4 20.2-83.3z"/><path fill="#B9CF49" d="M31.3 119.5C42.6 73.3 62.1 46 89.7 18.4 52.4 16 34.3 30 26.9 66.2c-4 20-6.7 40.4-15.5 59.1-11.9 25-14.4 47.9-8 64.4 7.5 19.2 31.8 31.5 57.9 34.7-8.6-10-14-22.7-16.4-27.6-17.3-22-19.2-54.3-13.6-77.3z"/><path fill="#09522A" d="M219.5 146.2c10.3-41.8-3.4-88.7-46.9-108.7-46.9-6.4-95.1 12.7-121.9 57.2C33.2 124 31.8 168.9 45 196.8c2.4 4.9 7.8 17.6 16.4 27.6 3.5.8 50.4 5.5 74.8-.5 18.6-4.6 35.5-12.8 50.3-24.9 17.1-16.2 28.3-33.8 33-52.8zm-89.2 53.3c-39-.1-71-31.7-71-70.2 0-39.6 35.3-74.7 75.1-74.7 38.1 0 65.1 31.7 65 76-.1 39.1-30.2 69-69.1 68.9z"/><path fill="#79B452" d="M89.7 18.4c28.7 1.6 56.9 5.4 82.8 19.1-46.9-6.4-95.1 12.7-121.9 57.2C33.2 124 31.8 168.9 45 196.8c-17.4-22-19.3-54.3-13.7-77.2C42.6 73.3 62.1 46 89.7 18.4z"/><path fill="#2F825F" d="M172.5 37.4c19.8 4.4 36.9 13.5 51.8 25.7 13.7 11.3 24.8 24.2 34.7 39.6-7.3 18.8-20.4 43.6-36.2 61.8-10 11.5-13.9 17.4-36.4 34.5 17.1-16.1 28.3-33.8 33-52.8 10.3-41.8-3.4-88.7-46.9-108.8z"/><path fill="#EAE53A" d="M262.2 52.5c-5.4-14.1-18.3-17.2-31.7-19.3-24-3.8-47.8-7.7-68.6-21.9-25.3-17.3-49.7-14.7-72.2 7 28.7 1.6 56.9 5.4 82.8 19.1 19.8 4.4 36.9 13.5 51.8 25.7 13.7 11.3 24.8 24.2 34.7 39.6 5.4-15.7 9.3-34.3 3.2-50.2z"/></svg>