<svg baseProfile="basic" xmlns="http://www.w3.org/2000/svg" viewBox="0 0 965 256"><path fill="#022A69" d="M824.6 128V79.7v-1.4c.1-1.4 1.2-2.4 2.6-2.5h1.2c14.2 0 28.4-.2 42.7 0 13.8.2 26.1 4.5 36.6 13.7 8.1 7.2 13.2 16.1 15.5 26.7 1.6 7.4 1.7 14.8.4 22.2-1.8 9.8-6.1 18.4-13.1 25.6-8.2 8.4-18.1 13.1-29.5 15.3-3.7.7-7.4 1-11.2 1H827.1c-1.2-.1-2.2-1.1-2.4-2.3-.1-.5 0-1 0-1.5-.1-16.2-.1-32.3-.1-48.5zm24.3.1v27.6c0 2.7 1 3.8 3.7 3.8 6 0 12.1.2 18.1-.1 10.4-.6 18.5-5.3 23.8-14.3 5.2-8.8 5.8-18.3 2.8-28-2.3-7.4-6.9-13-13.6-16.8-4.8-2.7-10-3.7-15.4-3.7h-16c-1.8.1-2.9 1.2-3.1 3-.1.5 0 1 0 1.5-.3 9-.3 18-.3 27zM796.5 110.1c-2.7 0-5.3-.1-8 0-2.2.1-3.6-.9-4.5-2.9-3.3-7.3-9.2-10.9-16.9-11.9-4.7-.6-9.3-.3-13.8 1.1-2 .6-3.8 1.5-5.4 2.8-3.6 3.2-3.6 8.4.1 11.5 2.3 1.9 5 2.8 7.8 3.6 4.9 1.3 9.9 1.9 14.9 2.6 7.3.9 14.5 2.2 21.3 5.1 3.5 1.5 6.8 3.4 9.6 6.1 4.2 4 6.4 8.9 7.1 14.6.6 5.4.3 10.8-1.6 16-2.5 6.7-7 11.8-13 15.5-5 3.1-10.5 5-16.3 6.2-7.7 1.5-15.5 1.7-23.2.6-9-1.3-17.1-4.6-23.8-11-4.3-4.1-7.2-9.2-8.9-14.9-.5-1.8-1-3.6-1.2-5.5-.1-.6-.1-1.1-.1-1.7.1-1.1.4-1.6 1.6-1.9.7-.2 1.3-.2 2-.2h15.7c2.8 0 4 1.1 4.8 3.2 2 5.7 6.3 9.1 11.8 11 6.5 2.2 13.1 2 19.6 0 1.7-.5 3.3-1.3 4.7-2.4 3.4-2.6 4.7-6.6 3.4-10.6-.8-2.5-2.6-4.1-4.8-5.3-2.4-1.3-5.1-2-7.7-2.5-5.7-1.2-11.5-1.8-17.2-2.6-6.1-.9-12.1-2.1-17.8-4.5-4.4-1.9-8.2-4.3-11.1-8.2-2.4-3.2-3.7-6.9-4.2-10.8-.7-5.4-.3-10.7 1.7-15.8 2.8-7.1 7.7-12.2 14.3-16 5.4-3.1 11.2-4.8 17.2-5.6 6.3-.9 12.7-.9 19 .1 9.5 1.5 17.9 5.1 24.6 12.1 5.3 5.4 8.3 12 9.6 19.4.3 2.1-.6 3.1-2.7 3.1-2.9-.3-5.8-.3-8.6-.3zM614.9 107.2V79.6v-1c.1-1.6 1.2-2.7 2.9-2.7h18.3c1.8 0 2.9 1.1 2.9 2.9V131.7c0 3.8.3 7.6 1.4 11.3 1.9 6.3 5.3 11.5 11.5 14.3 8.8 4 22.8 2.6 28.4-11.6 1.4-3.5 2.1-7.2 2.2-11 .4-18.3.1-36.6.2-54.9v-1.4c.2-1.5 1.2-2.5 2.7-2.5h18c2.4 0 3.4 1 3.4 3.4 0 18.5.1 37.1-.1 55.6-.1 9.7-2.3 19.1-7.6 27.4-5.9 9.5-14.6 15.3-25.4 17.8-7.4 1.7-14.9 1.9-22.4.7-16.8-2.8-28-12.3-33.5-28.4-2.1-6.1-3-12.5-3-18.9 0-8.7.1-17.5.1-26.3zM573.9 147.5h-25.2c-1.7 0-1.8.2-1.4 1.7 1.9 7.5 7.6 11.9 15.4 12 1.8 0 3.6-.2 5.4-.7 2.9-.8 5.4-2.3 7.4-4.7 1.6-1.9 3.5-2.7 6-2.6 5.1.1 10.2.1 15.4 0 4.6-.1 4.6 2.2 3.5 5.1-2.5 6.5-6.7 11.6-12.3 15.5-7.3 5.1-15.5 7.5-24.4 7.6-6.7.1-13.1-1-19.2-3.9-10.5-5-17.3-13.3-20.2-24.6-2.4-9.1-2-18.1 1.4-26.8 4.8-12 13.6-19.6 25.8-23.1 7.1-2 14.3-2.2 21.4-.5 12.7 2.9 21.8 10.4 27 22.4 2.5 5.8 3.5 11.9 3.2 18.1 0 .6-.1 1.1-.2 1.7-.5 1.8-1.6 2.8-3.5 2.8h-25.5zm-11.2-13.2h14.5c1.1 0 1.2-.2 1-1-1.2-4.5-3.7-8-8.1-10-2.8-1.3-5.7-1.7-8.6-1.4-6.2.6-11 3.4-13.5 9.4-.3.7-.5 1.4-.7 2.1-.2.6 0 .9.6.9h14.8zM488 171.6c-.7.8-1.3 1.6-2 2.3-4.5 4.7-10 7.1-16.4 7.5-4.8.3-9.5-.2-14-2.1-5.8-2.5-9.7-6.8-11.9-12.7-1.4-3.6-2-7.3-1.9-11.2v-48.8-.7c0-2 1.1-3.2 3.2-3.2h1.9c4.9 0 9.8.1 14.7 0 2.3-.1 3.5 1.3 3.5 3.5-.1 13.6 0 27.3 0 40.9 0 1.6 0 3.2.2 4.8.4 5.2 3.2 8.4 8.4 9.3 2.5.4 4.9.3 7.2-.6 4.7-1.8 6.9-5.2 7-10.8v-15c0-9.6.1-19.1 0-28.7 0-2.1 1.5-3.4 3.3-3.4 5.6.1 11.3 0 16.9 0 2.1 0 3 1 3.1 3v71.8c-.1 1.7-1.1 2.7-2.8 2.7h-16.3c-2.2 0-3.3-1.1-3.3-3.4v-5.2c-.6.1-.7.1-.8 0zM342.4 75.9h41.5c2.9 0 3.9 1 3.9 3.8v13.6c-.1 2.1-1.2 3.2-3.3 3.2h-27c-1.9.2-2.8 1.2-3 3.1V177.6c-.2 1.5-1.2 2.5-2.7 2.5H333c-1.4 0-2.4-1-2.6-2.4v-1.4-75.2-.3c0-3.3-1-4.3-4.3-4.3h-26.5c-1.3-.2-2.3-1.1-2.5-2.4-.1-.4-.1-.8-.1-1.2V79.6c0-.5 0-1 .1-1.5.3-1.4 1.4-2.2 2.8-2.3h1c14 .1 27.7.1 41.5.1zM407.6 108.9c.8-.2 1-.6 1.3-1 3.6-4.2 8.2-6.1 13.6-6.4 2.5-.1 4.9.2 7.2.9 1.2.4 2.3.9 3.3 1.8 1.3 1.3 1.5 2.2.6 3.8-1.9 3.4-3.8 6.8-5.7 10.1-.8 1.5-1.7 3-2.5 4.5-1 1.7-1.9 2.1-3.8 1.7-.7-.1-1.4-.3-2.2-.5-5.4-1-9.1 2.1-10.5 6.7-.6 2-.7 4.1-.7 6.2V177c.2 1.8-1.4 3.3-3.2 3.2-1.7-.1-3.4 0-5.1 0h-11.6c-2.3 0-3.3-1-3.3-3.3v-32.4-38.1-.5c0-2.2 1-3.2 3.2-3.2h16.2c2 0 3.1 1 3.2 3 .1 1 0 2 0 3.2zM943.6 93.9c-4.8 0-8.8-4-8.8-8.8 0-4.9 3.9-8.8 8.8-8.8 5.7-.1 9.4 4.9 9.3 9-.2 4.2-3.8 8.6-9.3 8.6zm.1-1.7c4 0 7.2-3.2 7.2-7.1 0-4-3.3-7.3-7.3-7.3s-7.2 3.3-7.2 7.3c.1 4 3.3 7.1 7.3 7.1z"/><path fill="#FEFEFF" d="M848.9 128.1v-27-1.5c.2-1.8 1.3-2.9 3.1-3h16c5.4 0 10.6 1 15.4 3.7 6.7 3.8 11.3 9.4 13.6 16.8 3.1 9.7 2.4 19.1-2.8 28-5.3 9-13.3 13.8-23.8 14.3-6 .3-12.1.1-18.1.1-2.6 0-3.7-1.1-3.7-3.8.3-9.2.3-18.4.3-27.6zM562.7 134.3h-14.8c-.6 0-.8-.3-.6-.9.2-.7.5-1.4.7-2.1 2.5-6 7.2-8.8 13.5-9.4 3-.3 5.9.1 8.6 1.4 4.3 2 6.8 5.5 8.1 10 .2.9.1 1-1 1h-14.5zM943.7 92.2c-4 0-7.2-3.1-7.2-7 0-4 3.2-7.3 7.2-7.3s7.3 3.3 7.3 7.3c0 3.8-3.3 7-7.3 7zm-3.3-7.1v4.1c0 .8.3 1.2 1.1 1.1.7 0 1-.4 1-1.1v-2.6c0-.3.1-.6.5-.6.3-.1.6.1.7.4.2.3.3.7.5 1.1.3.7.6 1.5.9 2.2.3.7 1 .8 1.6.5.7-.3.3-.8.2-1.3-.2-.6-.4-1.3-.7-1.9-.5-.9-.4-1.5.3-2.4 1.6-1.9.4-4.5-2.1-4.8-.9-.1-1.8 0-2.7 0-.9 0-1.2.3-1.2 1.2 0 1.4-.1 2.8-.1 4.1z"/><path fill="#022A69" d="M940.4 85.1V81c0-.9.4-1.2 1.2-1.2.9 0 1.8-.1 2.7 0 2.4.3 3.7 2.9 2.1 4.8-.7.9-.8 1.5-.3 2.4.3.6.5 1.3.7 1.9.2.5.6 1-.2 1.3-.6.2-1.3.2-1.6-.5-.3-.7-.6-1.5-.9-2.2-.2-.4-.3-.7-.5-1.1-.1-.3-.4-.4-.7-.4-.3.1-.4.3-.5.6v2.6c0 .7-.2 1.1-1 1.1s-1.1-.3-1.1-1.1c.2-1.4.1-2.7.1-4.1zm2.1-2.1c0 1.1.2 1.4 1 1.4.9 0 1.6-.6 1.6-1.4 0-.8-.7-1.3-1.6-1.3-.9-.1-1 .1-1 1.3z"/><path fill="#FEFEFF" d="M942.5 83c0-1.2.1-1.4 1-1.4s1.6.5 1.6 1.3-.6 1.4-1.6 1.4c-.8 0-1-.2-1-1.3z"/><g><circle fill="#012968" cx="128" cy="128" r="128"/><path fill="#FFF" d="M192.4 204.8H63.6c-6.9 0-12.5-5.6-12.5-12.5V63.5c0-6.9 5.6-12.5 12.5-12.5h128.9c6.9 0 12.5 5.6 12.5 12.5v128.9c-.1 6.8-5.7 12.4-12.6 12.4z"/><path fill="#012968" d="M53.3 144.1V63.6c0-5.8 4.7-10.5 10.5-10.5h128.6c5.8 0 10.5 4.7 10.5 10.5v80.5c0 1.3-1.1 2.4-2.4 2.4H55.6c-1.3-.1-2.3-1.1-2.3-2.4z"/><path fill="#FFF" d="M128 70.1H99.1c-2.1 0-2.9.6-2.9 2.7v11c0 2 .7 2.7 2.7 2.7h18.4c2 0 2.5.4 2.5 2.4-.1 12.5 0 25.1-.1 37.6 0 2.2.7 3 3 3h9.7c3.7 0 3.7 0 3.7-3.7 0-12.2.1-24.4-.1-36.6 0-2.5.8-2.7 3-2.7h17.6c2.4 0 3.1-.8 3-3.1V73.2c0-2.4-.8-3.1-3.2-3.1H128z"/><path fill="#012968" d="M158.4 175.7v-13.3c0-.3.3-.6.6-.6h9.3c1.3 0 2.8 0 4 .2 7.8 1.2 12.9 7.2 12.4 14.3-.6 7.7-6.3 12.9-14.3 13.1H159c-.3 0-.6-.3-.6-.6-.1-2.1 0-9.8 0-13.1zm10.1-8.3h-3.3c-.3 0-.6.3-.6.6v15.8c0 .3.3.6.6.6h5c3.9 0 7.9-2.9 7.9-8.5 0-5.3-3.6-8.5-9.6-8.5zM147.2 170.6c-.2 0-.4-.1-.5-.3-.6-1.3-1.8-2.2-2.1-2.4-1.8-1.3-5.3-1.3-7.1-.2-.8.5-1.4 1.1-1.3 2.1.1.7.6 1.3 1.2 1.6 2.1 1.2 4.5 1 6.8 1.6 1.3.3 2.7.6 3.9 1 6.5 2.1 5.7 9.6 2.5 12.7-4.3 4-13.7 4.1-18 .1-.5-.4-2.5-2.5-2.9-5.3 0-.4.2-.7.6-.7h4.6c.2 0 .4.1.5.3 1.1 2 2.1 2.7 3.6 3.3 2.2.8 4.9.5 6.7-.7 1.8-1.3 1.4-3.7-.6-4.7-1.8-.8-3.8-.9-5.7-1.2-1.2-.2-2.4-.3-3.5-.6-3-.8-5.5-2.3-5.9-5.8-.4-3.2 1.2-6.3 4.3-8 2.1-1.2 4.4-1.7 6.6-1.6 4.4 0 7.5 1.5 9.8 4 .7.7 1.7 2.6 1.9 4.3 0 .4-.2.7-.6.7l-4.8-.2zM95 161.8H72.1c-.3 0-.6.3-.6.6v4.5c0 .3.3.6.6.6h8.3V189c0 .3.3.6.6.6h5.1c.3 0 .6-.3.6-.6v-21.5H95c.3 0 .6-.3.6-.6v-4.5c0-.3-.3-.6-.6-.6zM118.8 161.8c-.3 0-.6.3-.6.6v13.1c0 3.3-.9 8.4-5.8 8.4h-.2c-5.5 0-5.8-5.1-5.8-8.4v-13.1c0-.3-.3-.6-.6-.6h-5.1c-.3 0-.6.3-.6.6v13.3c0 11.2 6.1 13.9 11.8 13.9h.7c8.7 0 11.9-6.8 11.9-13.9v-13.3c0-.3-.3-.6-.6-.6h-5.1z"/></g></svg>