<svg baseProfile="basic" xmlns="http://www.w3.org/2000/svg" viewBox="0 0 1054 256"><path fill="#4D4E50" d="M306 62.3h8.5c2.2 0 3.9 1.8 3.9 3.9v75.9c0 24 13 39.2 37.2 39.2 24.2 0 37.2-15.2 37.2-39.2V66.2c0-2.2 1.8-3.9 3.9-3.9h8.5c2.2 0 3.9 1.8 3.9 3.9v76.1c0 32.7-17.9 53.5-53.5 53.5s-53.5-21-53.5-53.3V66.2c-.1-2.1 1.7-3.9 3.9-3.9zm128.1 103.4c1.3-1.6 3.7-1.8 5.1-.4 8.8 8.5 21.9 15.9 38.6 15.9 23.4 0 30.9-12.6 30.9-22.6 0-15.8-15.9-20.1-33.2-24.8-21-5.5-44.5-11.4-44.5-37.2 0-21.6 19.3-36.4 45.1-36.4 18.5 0 33.2 5.7 44 15.7 1.6 1.4 1.7 3.8.4 5.4l-5.1 6.3c-1.3 1.6-3.6 1.7-5 .3-9.6-9-22.2-13.1-35.4-13.1-15.8 0-27 8.5-27 20.8 0 13.2 15.2 17.1 31.9 21.6 21.4 5.7 45.8 12.4 45.8 40 0 19.1-13 38.6-48.4 38.6-21.2 0-37.1-7.5-48-18.3-1.4-1.4-1.6-3.7-.3-5.2l5.1-6.6zM545 66.2c0-2.2 1.8-3.9 3.9-3.9h40.9c40.7 0 67.3 28.5 67.3 65.7 0 37.4-26.6 65.5-67.3 65.5h-40.9c-2.2 0-3.9-1.8-3.9-3.9V66.2zm44.9 112.7c31.9 0 50.3-22.8 50.3-50.9 0-28.4-17.9-51.1-50.3-51.1h-28.5V179h28.5zm230.6-33c0-27.6 18.1-49.8 47-49.8s47 22.2 47 49.8-18.1 50-47 50-47-22.5-47-50zm78.5 0c0-19.3-11.2-36.6-31.5-36.6s-31.7 17.3-31.7 36.6c0 19.5 11.4 36.8 31.7 36.8s31.5-17.3 31.5-36.8zm29.7-73.4c0-5.5 4.5-9.8 9.8-9.8 5.5 0 10 4.3 10 9.8s-4.5 10-10 10c-5.3.1-9.8-4.5-9.8-10zm6.5 26h6.9c2.2 0 3.9 1.8 3.9 3.9v87.2c0 2.2-1.8 3.9-3.9 3.9h-6.9c-2.2 0-3.9-1.8-3.9-3.9v-87.2c-.1-2.2 1.7-3.9 3.9-3.9zm95.8 32.9c0-16.7-8.5-22-21.2-22-11.6 0-22.6 7.1-28.2 14.8v65.5c0 2.2-1.8 3.9-3.9 3.9h-6.9c-2.2 0-3.9-1.8-3.9-3.9v-87.2c0-2.2 1.8-3.9 3.9-3.9h6.9c2.2 0 3.9 1.8 3.9 3.9v9.8c6.7-7.9 19.7-16.1 33.8-16.1 19.9 0 30.3 10 30.3 30.7v62.7c0 2.2-1.8 3.9-3.9 3.9h-6.9c-2.2 0-3.9-1.8-3.9-3.9v-58.2zM694.5 128c0-40.4 29.7-67.9 66.9-67.9 22 0 37.5 9.6 47.9 22.7 1.3 1.7.9 4.1-1 5.2l-7.3 4.1c-1.7 1-3.8.5-5-1-7.8-9.6-20.4-16.4-34.6-16.4-28.2 0-50 22-50 53.3 0 31.1 21.8 53.3 50 53.3 14.3 0 26.9-6.6 34.6-16.4 1.2-1.5 3.3-1.9 5-1l7.4 4.1c1.9 1.1 2.4 3.6 1 5.2-10.8 13.3-26 22.7-48 22.7-37.2 0-66.9-27.5-66.9-67.9z"/><circle fill="#2775CA" cx="128" cy="128" r="128"/><path fill="#FFF" d="M104 217c0 3-2.4 4.7-5.3 3.8C60 208.5 32 172.2 32 129.4s28-79.2 66.7-91.5c2.9-.9 5.3.8 5.3 3.8v7.4c0 2-1.6 4.4-3.5 5C69.9 65.4 48 94.8 48 129.3s21.9 63.9 52.6 75.1c1.9.7 3.5 3 3.5 5v7.6z"/><path fill="#FFF" d="M136 189.3c0 2.2-1.8 4-4 4h-8c-2.2 0-4-1.8-4-4v-12.6c-17.5-2.4-26-12.1-28.3-25.4-.4-2.3 1.4-4.3 3.7-4.3h9.1c1.9 0 3.5 1.4 3.9 3.3 1.7 7.9 6.3 14 20.3 14 10.3 0 17.7-5.8 17.7-14.4s-4.3-11.9-19.5-14.4c-22.4-3-33-9.8-33-27.4 0-13.6 10.2-24.1 26.1-26.4V69.3c0-2.2 1.8-4 4-4h8c2.2 0 4 1.8 4 4V82c12.9 2.3 21.1 9.6 23.7 21.8.5 2.3-1.3 4.5-3.7 4.5h-8.4c-1.8 0-3.3-1.2-3.9-3-2.3-7.7-7.8-11-17.4-11-10.6 0-16.1 5.1-16.1 12.3 0 7.6 3.1 11.4 19.4 13.8 22 3 33.3 9.3 33.3 28 0 14.2-10.5 25.7-27.1 28.4l.2 12.5z"/><path fill="#FFF" d="M157.3 220.8c-2.9.9-5.3-.8-5.3-3.8v-7.4c0-2.2 1.4-4.3 3.5-5 30.6-11.2 52.6-40.7 52.6-75.1s-21.9-63.9-52.6-75.1c-1.9-.7-3.5-3-3.5-5V42c0-3 2.4-4.8 5.3-3.8C196 50.3 224 86.6 224 129.5c0 42.7-28 78.9-66.7 91.3z"/></svg>