<svg xmlns="http://www.w3.org/2000/svg" width="1440" height="840" fill="none"><g clip-path="url(#a)"><path fill="#fff" d="m272 114.788 1.38 6.62 6.62 1.38-6.62 1.381-1.38 6.619-1.38-6.619-6.62-1.381 6.62-1.38 1.38-6.62ZM1375 432l1.38 6.62L1383 440l-6.62 1.38L1375 448l-1.38-6.62L1367 440l6.62-1.38L1375 432ZM224 629l1.38 6.62L232 637l-6.62 1.38L224 645l-1.38-6.62L216 637l6.62-1.38L224 629ZM55 470l.863 4.137L60 475l-4.137.863L55 480l-.863-4.137L50 475l4.137-.863L55 470ZM1182 304l.86 4.137 4.14.863-4.14.863L1182 314l-.86-4.137L1177 309l4.14-.863.86-4.137ZM1387 640l.86 4.137 4.14.863-4.14.863L1387 650l-.86-4.137L1382 645l4.14-.863.86-4.137ZM456 38l.863 4.137L461 43l-4.137.863L456 48l-.863-4.137L451 43l4.137-.863L456 38ZM1296 203l.86 4.137 4.14.863-4.14.863L1296 213l-.86-4.137L1291 208l4.14-.863.86-4.137ZM1211 822l.86 4.137 4.14.863-4.14.863L1211 832l-.86-4.137L1206 827l4.14-.863.86-4.137ZM55 280l.863 4.137L60 285l-4.137.863L55 290l-.863-4.137L50 285l4.137-.863L55 280Z"/><circle cx="73" cy="807" r="1" fill="#fff"/><circle cx="418" cy="422" r="1" fill="#fff"/><circle cx="161" cy="273" r="1" fill="#fff"/><circle cx="417" cy="140.737" r="1" fill="#fff"/><circle cx="987" cy="43" r="1" fill="#fff"/><circle cx="737" cy="2" r="1" fill="#fff"/><circle cx="1345" cy="43" r="1" fill="#fff"/><circle cx="989" cy="199" r="1" fill="#fff"/><circle cx="143" cy="680" r="1" fill="#fff"/><circle cx="359" cy="285" r="1" fill="#fff"/><circle cx="193" cy="177" r="1" fill="#fff"/><circle cx="541" cy="268" r="1" fill="#fff"/><circle cx="624" cy="455" r="1" fill="#fff"/><circle cx="842" cy="269" r="1" fill="#fff"/><circle cx="908" cy="439" r="1" fill="#fff"/><circle cx="1017" cy="283" r="1" fill="#fff"/><circle cx="1291" cy="339" r="1" fill="#fff"/><circle cx="1276.68" cy="511" r="1" fill="#fff"/><circle cx="1163.22" cy="621" r="1" fill="#fff"/><circle cx="987" cy="583" r="1" fill="#fff"/><circle cx="917" cy="695" r="1" fill="#fff"/><circle cx="334" cy="363" r="1" fill="#fff"/><circle cx="42.753" cy="620" r="1" fill="#fff"/><circle cx="1382" cy="280" r="1" fill="#fff"/><circle cx="1060" cy="420" r="1" fill="#fff"/><circle cx="733" cy="584" r="1" fill="#fff"/><circle cx="709" cy="682" r="1" fill="#fff"/><circle cx="522" cy="589" r="1" fill="#fff"/><circle cx="1197" cy="444.898" r="1" fill="#fff"/><circle cx="1395" cy="520" r="1" fill="#fff"/><circle cx="1109" cy="337" r="1" fill="#fff"/><circle cx="239" cy="739" r="1" fill="#fff"/><circle cx="1368" cy="813" r="1" fill="#fff"/><g filter="url(#b)"><ellipse cx="267.306" cy="441.978" fill="#fff" fill-opacity=".18" rx="121.458" ry="122.414" transform="rotate(-62.75 267.306 441.978)"/></g><circle cx="269.894" cy="449.767" r="127.537" fill="#fff" transform="rotate(-62.75 269.894 449.767)"/><mask id="d" width="261" height="261" x="141" y="322" maskUnits="userSpaceOnUse" style="mask-type:alpha"><path fill="url(#c)" d="M330.92 336.911c25.045 12.898 44.131 32.798 56.1 56.077 2.635 5.126 6.658 4.033 7.78 6.6 1.105 4.055 2.02 5.25 3.317 9.584.653 2.183-2.522 4.423-1.131 9.583 8.141 30.2 5.483 63.412-9.966 93.409-32.904 63.887-111.368 89.003-175.254 56.1-63.886-32.904-89.003-111.368-56.099-175.254 8.931-17.342 21.22-31.827 35.663-43.071 2.212-1.721 0-4.757 1.475-5.642 3.686-2.211 4.423-2.948 7.74-5.16.993-.592 4.424 1.475 7.055 0 36.824-20.646 82.979-23.003 123.32-2.226Z"/></mask><g mask="url(#d)"><ellipse cx="273.772" cy="453.838" fill="url(#e)" rx="130.117" ry="140.287" transform="rotate(-62.75 273.772 453.838)"/><path stroke="url(#f)" stroke-opacity=".03" stroke-width="3" d="M395.194 487.172c-22.154 16.448-76.36 40.351-115.954 4.382-49.493-44.962-89.726-56.171-159.419-.507"/><path stroke="url(#g)" stroke-opacity=".3" stroke-width="2" d="M397.406 461.498c-22.154 16.447-76.36 40.351-115.954 4.382-49.493-44.962-89.726-56.172-159.419-.507"/><path stroke="url(#h)" stroke-opacity=".3" stroke-width="2" d="M399.618 448.228c-22.154 16.448-76.36 40.351-115.955 4.382-49.493-44.961-89.726-56.171-159.418-.506"/><path stroke="url(#i)" stroke-opacity=".05" stroke-width="28" d="M385.935 399.021c-.682 36.305-45.817 61.362-87.739 28.135-52.403-41.534-107.125-101.815-172.92-41.593"/><path stroke="url(#j)" d="M200.499 341.054c1.666-1.591.806-2.641.168-2.967-.68-.693-7.99 2.02-9.554 6.191-1.564 4.17 7.305-1.236 9.386-3.224Z"/><path fill="#1F0836" d="M199.873 340.14c1.663-1.619.802-2.69.164-3.023-.682-.707-7.989 2.049-9.548 6.296-1.558 4.247 7.304-1.249 9.384-3.273Z"/><path stroke="url(#k)" stroke-opacity=".05" stroke-width="39" d="M371.454 360.805c-.506 24.739-31.217 41.866-59.676 19.274-35.573-28.24-72.702-69.252-117.498-28.14"/></g><circle cx="66.723" cy="66.723" r="66.223" stroke="#55565C" transform="scale(-1 1) rotate(-62.75 -113.044 1459.797)"/><mask id="l" width="133" height="133" x="1203" y="595" maskUnits="userSpaceOnUse" style="mask-type:alpha"><path fill="#D9D9D9" d="M1239 602.938c-12.72 6.55-22.41 16.654-28.49 28.474-1.33 2.603-3.38 2.048-3.95 3.352-.56 2.058-1.02 2.665-1.68 4.866-.33 1.108 1.28 2.246.57 4.866-4.13 15.335-2.78 32.199 5.06 47.43 16.71 32.44 56.55 45.193 88.99 28.486 32.44-16.708 45.19-56.549 28.49-88.988-4.54-8.806-10.78-16.161-18.11-21.87-1.12-.875 0-2.416-.75-2.865-1.87-1.123-2.25-1.498-3.93-2.621-.5-.3-2.25.749-3.58 0-18.7-10.483-42.14-11.68-62.62-1.13Z"/></mask><g mask="url(#l)"><path stroke="url(#m)" stroke-opacity=".03" stroke-width="3" d="M1202.59 681.7c11.59 8.605 39.95 21.11 60.67 2.292 25.89-23.522 46.94-29.387 83.4-.265"/><path stroke="url(#n)" stroke-opacity=".3" stroke-width="2" d="M1201.43 668.268c11.59 8.605 39.95 21.11 60.67 2.292 25.89-23.522 46.94-29.387 83.4-.264"/><path stroke="url(#o)" stroke-opacity=".3" stroke-width="2" d="M1200.28 661.326c11.59 8.605 39.95 21.11 60.66 2.292 25.89-23.522 46.94-29.387 83.4-.265"/><path stroke="url(#p)" stroke-opacity=".05" stroke-width="28" d="M1200.64 635.588c.42 20.017 25.25 33.895 48.24 15.637 28.72-22.823 58.7-55.979 94.92-22.684"/><path stroke="url(#q)" d="M1304.45 605.255c-.87-.832-.42-1.381-.09-1.552.36-.362 4.18 1.057 5 3.239.82 2.182-3.82-.646-4.91-1.687Z"/><path fill="#1F0836" d="M1304.78 604.777c-.87-.847-.42-1.407-.09-1.581.36-.37 4.18 1.072 5 3.293.81 2.222-3.82-.653-4.91-1.712Z"/><path stroke="url(#r)" stroke-opacity=".05" stroke-width="39" d="M1215.21 615.486c.27 14.671 18.51 24.797 35.45 11.37 21.18-16.783 43.29-41.142 69.88-16.805"/></g><path stroke="#5153E7" d="M1058.33 164.356c-.35-.953-.1-2.206.91-3.801 1.01-1.583 2.73-3.406 5.1-5.43 4.75-4.046 12.05-8.817 21.37-14.005 18.63-10.373 45.25-22.372 75.44-33.531 30.19-11.16 58.22-19.36 79.12-23.599 10.45-2.12 19.1-3.244 25.34-3.26 3.12-.007 5.6.264 7.4.81 1.81.549 2.81 1.341 3.16 2.294.36.952.11 2.205-.91 3.8-1.01 1.583-2.72 3.406-5.1 5.43-4.74 4.046-12.04 8.817-21.36 14.006-18.63 10.373-45.25 22.371-75.45 33.531-30.19 11.159-58.21 19.359-79.11 23.598-10.45 2.12-19.1 3.245-25.34 3.26-3.12.007-5.61-.263-7.4-.809-1.81-.549-2.81-1.342-3.17-2.294Z"/><path stroke="#5153E7" d="M1081.24 155.89c-.37-.998-.24-2.218.47-3.679.71-1.462 1.97-3.111 3.77-4.915 3.58-3.607 9.2-7.753 16.44-12.173 14.48-8.835 35.37-18.714 59.23-27.534s46.16-14.902 62.9-17.61c8.38-1.353 15.34-1.858 20.41-1.45 2.54.205 4.57.636 6.06 1.284 1.49.648 2.38 1.488 2.75 2.486.37.998.24 2.218-.47 3.68-.71 1.46-1.98 3.11-3.77 4.914-3.58 3.607-9.2 7.753-16.44 12.173-14.49 8.835-35.37 18.714-59.23 27.535-23.87 8.82-46.16 14.902-62.9 17.608-8.38 1.354-15.34 1.859-20.41 1.451-2.54-.205-4.57-.635-6.06-1.284-1.49-.648-2.38-1.488-2.75-2.486Z"/><mask id="t" width="123" height="123" x="1102" y="61" maskUnits="userSpaceOnUse" style="mask-type:alpha"><circle cx="1163.22" cy="122.788" r="61.054" fill="url(#s)" transform="rotate(129.462 1163.22 122.788)"/></mask><g mask="url(#t)"><circle cx="1163.22" cy="122.788" r="61.054" fill="url(#u)" transform="rotate(129.462 1163.22 122.788)"/><path stroke="url(#v)" stroke-opacity=".17" d="M1182.54 57.876c8.86 8.604 23.34 30.833 10.3 50.925-16.3 25.115-18.35 43.703 11.27 70.485"/><path stroke="url(#w)" stroke-opacity=".03" stroke-width="8" d="M1148.12 51.065c10.57 10.258 27.83 36.763 12.28 60.719-19.43 29.945-21.87 52.108 13.45 84.041"/><path stroke="url(#x)" stroke-opacity=".05" stroke-width="2" d="M1109.38 76.635c16.09-2.318 30.42 15.82 18.76 36.742-14.57 26.154-37.26 54.685-5.9 79.416"/></g><mask id="z" width="123" height="123" x="1102" y="61" maskUnits="userSpaceOnUse" style="mask-type:alpha"><circle cx="1163.22" cy="122.788" r="61.054" fill="url(#y)" transform="rotate(129.462 1163.22 122.788)"/></mask><g stroke="#5153E7" mask="url(#z)"><path d="M1058.33 164.356c-.35-.953-.1-2.206.91-3.801 1.01-1.583 2.73-3.406 5.1-5.431 4.75-4.045 12.05-8.816 21.37-14.004 18.63-10.373 45.25-22.372 75.44-33.531 30.19-11.16 58.22-19.36 79.12-23.599 10.45-2.12 19.1-3.245 25.34-3.26 3.12-.007 5.6.263 7.4.81 1.81.549 2.81 1.341 3.16 2.294.19.501.29 1.251.27 2.255-.02.996-.15 2.207-.4 3.612-.5 2.809-1.48 6.356-2.94 10.434-2.92 8.156-7.78 18.398-14.62 29.05-13.7 21.307-35.34 44.197-65.41 55.313-30.07 11.117-62.94 8.37-88.74 1.656-12.9-3.356-24.02-7.7-32.12-11.783-4.05-2.042-7.34-4.014-9.71-5.759-1.19-.873-2.14-1.683-2.85-2.411-.71-.734-1.13-1.355-1.32-1.845Z"/><path d="M1081.24 155.89c-.37-.998-.24-2.218.47-3.679.71-1.462 1.97-3.111 3.77-4.915 3.58-3.607 9.2-7.753 16.44-12.173 14.48-8.835 35.37-18.714 59.23-27.535 23.86-8.82 46.16-14.901 62.9-17.608 8.38-1.354 15.34-1.86 20.41-1.45 2.54.204 4.57.635 6.06 1.283 1.49.648 2.38 1.488 2.75 2.486.4 1.079.62 3.026.56 5.7-.05 2.656-.37 5.974-.99 9.758-1.26 7.567-3.75 16.973-7.84 26.637-8.18 19.339-22.71 39.638-46.41 48.399-23.73 8.769-52.22 4.353-75.28-3.467-11.51-3.908-21.65-8.656-29.11-13.007-3.73-2.176-6.79-4.248-9.01-6.059-1.11-.906-2.01-1.741-2.68-2.486-.67-.752-1.09-1.385-1.27-1.884Z"/></g><path fill="#5153E7" d="m1269.17 94.298-15.91 9.92-29.06 15.395-.12-1.7 13.66-7.942 11.41-8.578 4.61-6.717-.89-3.641-3.72-1.619-5.82-.97-6.48-.082-8.13.88-25.21 4.543 37.63-10.197 17.4-2.59 13.57.324 3.99 2.104-.68 4.044-6.25 6.826ZM1088.52 165.318l25.8-5.947-1.03-1.42-15.6 1.942-6.83.176-5.98-.997-3.59-2.678-.04-3.782 4.9-6.622 12.76-9.018 21.15-12.061-19.41 8.293-19.2 10.498-10.81 6.511-9.04 7.54-3.05 4.803.32 2.938 7.38 1.669 8.77-.439 13.5-1.406Z"/><path fill="#5153E7" d="m1269.17 94.298-15.91 9.921-29.06 15.394-.12-1.7 13.66-7.942 11.41-8.578 4.61-6.717-.89-3.641-3.72-1.619-5.82-.97-6.48-.082-8.13.88-25.21 4.543 37.63-10.197 17.4-2.59 13.57.324 3.99 2.104-.68 4.044-6.25 6.826ZM1088.52 165.318l25.8-5.947-1.03-1.42-15.6 1.942-6.83.176-5.98-.997-3.59-2.678-.04-3.782 4.9-6.622 12.76-9.018 21.15-12.061-19.41 8.293-19.2 10.498-10.81 6.511-9.04 7.54-3.05 4.803.32 2.938 7.38 1.669 8.77-.439 13.5-1.406Z"/></g><defs><linearGradient id="e" x1="273.772" x2="273.772" y1="313.551" y2="594.126" gradientUnits="userSpaceOnUse"><stop stop-color="#584980"/><stop offset=".536" stop-color="#0C112F"/></linearGradient><linearGradient id="f" x1="379.157" x2="174.817" y1="510.368" y2="454.719" gradientUnits="userSpaceOnUse"><stop stop-color="#fff"/><stop offset="1" stop-color="#fff" stop-opacity="0"/></linearGradient><linearGradient id="g" x1="378.75" x2="204.866" y1="480.435" y2="421.658" gradientUnits="userSpaceOnUse"><stop stop-color="#fff" stop-opacity="0"/><stop offset="1" stop-color="#fff"/></linearGradient><linearGradient id="h" x1="380.962" x2="207.077" y1="467.165" y2="408.388" gradientUnits="userSpaceOnUse"><stop stop-color="#fff" stop-opacity="0"/><stop offset="1" stop-color="#fff" stop-opacity=".35"/></linearGradient><linearGradient id="i" x1="396.252" x2="218.811" y1="435.14" y2="388.18" gradientUnits="userSpaceOnUse"><stop stop-color="#F1C480"/><stop offset="1" stop-color="#F3D4A4" stop-opacity="0"/></linearGradient><linearGradient id="j" x1="199.072" x2="197.228" y1="345.772" y2="342.823" gradientUnits="userSpaceOnUse"><stop stop-color="#fff"/><stop offset="1" stop-color="#fff" stop-opacity="0"/></linearGradient><linearGradient id="k" x1="378.425" x2="257.917" y1="385.405" y2="353.396" gradientUnits="userSpaceOnUse"><stop stop-color="#F1C480"/><stop offset="1" stop-color="#F3D4A4" stop-opacity="0"/></linearGradient><linearGradient id="m" x1="1210.98" x2="1317.89" y1="693.835" y2="664.722" gradientUnits="userSpaceOnUse"><stop stop-color="#fff"/><stop offset="1" stop-color="#fff" stop-opacity="0"/></linearGradient><linearGradient id="n" x1="1211.19" x2="1302.17" y1="678.175" y2="647.425" gradientUnits="userSpaceOnUse"><stop stop-color="#fff" stop-opacity="0"/><stop offset="1" stop-color="#fff"/></linearGradient><linearGradient id="o" x1="1210.04" x2="1301.01" y1="671.233" y2="640.483" gradientUnits="userSpaceOnUse"><stop stop-color="#fff" stop-opacity="0"/><stop offset="1" stop-color="#fff" stop-opacity=".35"/></linearGradient><linearGradient id="p" x1="1195.02" x2="1292.36" y1="655.486" y2="629.585" gradientUnits="userSpaceOnUse"><stop stop-color="#F1C480"/><stop offset="1" stop-color="#F3D4A4" stop-opacity="0"/></linearGradient><linearGradient id="q" x1="1305.2" x2="1306.16" y1="607.724" y2="606.181" gradientUnits="userSpaceOnUse"><stop stop-color="#fff"/><stop offset="1" stop-color="#fff" stop-opacity="0"/></linearGradient><linearGradient id="r" x1="1211.04" x2="1282.74" y1="630.082" y2="611.105" gradientUnits="userSpaceOnUse"><stop stop-color="#F1C480"/><stop offset="1" stop-color="#F3D4A4" stop-opacity="0"/></linearGradient><linearGradient id="u" x1="1260.69" x2="1133.23" y1="-7.889" y2="168.847" gradientUnits="userSpaceOnUse"><stop offset=".542" stop-color="#091F64"/><stop offset="1" stop-color="#354B94"/></linearGradient><linearGradient id="v" x1="1193.94" x2="1184.09" y1="63.29" y2="157.604" gradientUnits="userSpaceOnUse"><stop stop-color="#fff"/><stop offset="1" stop-color="#fff" stop-opacity="0"/></linearGradient><linearGradient id="w" x1="1159.7" x2="1143.69" y1="59.265" y2="155.941" gradientUnits="userSpaceOnUse"><stop stop-color="#fff"/><stop offset="1" stop-color="#fff" stop-opacity="0"/></linearGradient><linearGradient id="x" x1="1124.6" x2="1116.65" y1="69.469" y2="151.27" gradientUnits="userSpaceOnUse"><stop stop-color="#F1C480"/><stop offset="1" stop-color="#F3D4A4" stop-opacity="0"/></linearGradient><radialGradient id="c" cx="0" cy="0" r="1" gradientTransform="rotate(27.25 -797.931 786.024) scale(130.117)" gradientUnits="userSpaceOnUse"><stop offset=".719" stop-color="#2E1D5E"/><stop offset="1" stop-color="#413072"/></radialGradient><radialGradient id="s" cx="0" cy="0" r="1" gradientTransform="rotate(90 520.216 643.004) scale(61.0542)" gradientUnits="userSpaceOnUse"><stop offset=".906" stop-color="#2E1D5E"/><stop offset="1" stop-color="#413072"/></radialGradient><radialGradient id="y" cx="0" cy="0" r="1" gradientTransform="rotate(90 520.216 643.004) scale(61.0542)" gradientUnits="userSpaceOnUse"><stop offset=".906" stop-color="#2E1D5E"/><stop offset="1" stop-color="#413072"/></radialGradient><clipPath id="a"><path fill="#fff" d="M0 0h1440v840H0z"/></clipPath><filter id="b" width="276.48" height="275.369" x="129.065" y="304.293" color-interpolation-filters="sRGB" filterUnits="userSpaceOnUse"><feFlood flood-opacity="0" result="BackgroundImageFix"/><feBlend in="SourceGraphic" in2="BackgroundImageFix" result="shape"/><feGaussianBlur result="effect1_foregroundBlur_27_7683" stdDeviation="8"/></filter></defs></svg>